<svg viewBox="0 0 380 520" fill="none" xmlns="http://www.w3.org/2000/svg">
  <!-- Diamond at top -->
  <rect x="178" y="0" width="18" height="18" rx="2" transform="rotate(45 187 9)" fill="#D4A088"/>

  <!-- Outer shape - mandorla/vesica piscis -->
  <path d="M190 60
           C 130 85, 60 155, 48 240
           C 36 325, 90 400, 190 480
           C 290 400, 344 325, 332 240
           C 320 155, 250 85, 190 60Z"
        stroke="#D4A088" stroke-width="4.5" fill="none"
        stroke-linecap="round" stroke-linejoin="round"/>

  <!-- Inner parallel curve -->
  <path d="M190 90
           C 140 110, 82 172, 72 242
           C 62 312, 105 378, 190 448
           C 275 378, 318 312, 308 242
           C 298 172, 240 110, 190 90Z"
        stroke="#D4A088" stroke-width="3.5" fill="none"
        stroke-linecap="round" stroke-linejoin="round"/>

  <!-- Center leaf shape -->
  <path d="M190 125
           C 168 160, 140 210, 142 260
           C 144 300, 160 340, 190 395
           C 220 340, 236 300, 238 260
           C 240 210, 212 160, 190 125Z"
        stroke="#D4A088" stroke-width="3.5" fill="none"
        stroke-linecap="round" stroke-linejoin="round"/>

  <!-- Inner center eye shape -->
  <path d="M190 180
           C 178 205, 168 230, 170 255
           C 172 275, 180 295, 190 320
           C 200 295, 208 275, 210 255
           C 212 230, 202 205, 190 180Z"
        stroke="#D4A088" stroke-width="3" fill="#D4A088" opacity="0.15"
        stroke-linecap="round" stroke-linejoin="round"/>
</svg>
