<svg viewBox="0 0 400 480" fill="none" xmlns="http://www.w3.org/2000/svg">
  <!-- Center petal (top) -->
  <path d="M200 60
           C 175 100, 165 160, 170 200
           C 175 240, 190 260, 200 270
           C 210 260, 225 240, 230 200
           C 235 160, 225 100, 200 60Z"
        stroke="#B8714E" stroke-width="3.5" fill="#B8714E" fill-opacity="0.08"
        stroke-linecap="round" stroke-linejoin="round"/>

  <!-- Left outer petal -->
  <path d="M200 270
           C 170 240, 110 210, 75 195
           C 50 185, 30 190, 28 200
           C 26 215, 50 245, 85 265
           C 120 285, 170 280, 200 270Z"
        stroke="#B8714E" stroke-width="3.5" fill="#B8714E" fill-opacity="0.06"
        stroke-linecap="round" stroke-linejoin="round"/>

  <!-- Right outer petal -->
  <path d="M200 270
           C 230 240, 290 210, 325 195
           C 350 185, 370 190, 372 200
           C 374 215, 350 245, 315 265
           C 280 285, 230 280, 200 270Z"
        stroke="#B8714E" stroke-width="3.5" fill="#B8714E" fill-opacity="0.06"
        stroke-linecap="round" stroke-linejoin="round"/>

  <!-- Inner left petal -->
  <path d="M200 270
           C 180 250, 140 225, 115 215
           C 95 208, 80 212, 78 220
           C 76 232, 95 255, 125 268
           C 155 280, 180 278, 200 270Z"
        stroke="#B8714E" stroke-width="3" fill="#B8714E" fill-opacity="0.1"
        stroke-linecap="round" stroke-linejoin="round"/>

  <!-- Inner right petal -->
  <path d="M200 270
           C 220 250, 260 225, 285 215
           C 305 208, 320 212, 322 220
           C 324 232, 305 255, 275 268
           C 245 280, 220 278, 200 270Z"
        stroke="#B8714E" stroke-width="3" fill="#B8714E" fill-opacity="0.1"
        stroke-linecap="round" stroke-linejoin="round"/>

  <!-- Left mid petal -->
  <path d="M200 270
           C 175 245, 125 218, 100 208
           C 75 198, 55 205, 54 215
           C 52 228, 75 252, 108 268
           C 140 283, 175 280, 200 270Z"
        stroke="#B8714E" stroke-width="3" fill="#B8714E" fill-opacity="0.08"
        stroke-linecap="round" stroke-linejoin="round"/>

  <!-- Right mid petal -->
  <path d="M200 270
           C 225 245, 275 218, 300 208
           C 325 198, 345 205, 346 215
           C 348 228, 325 252, 292 268
           C 260 283, 225 280, 200 270Z"
        stroke="#B8714E" stroke-width="3" fill="#B8714E" fill-opacity="0.08"
        stroke-linecap="round" stroke-linejoin="round"/>

  <!-- Base / water ripple lines -->
  <path d="M110 310 C 140 295, 180 288, 200 288 C 220 288, 260 295, 290 310"
        stroke="#B8714E" stroke-width="2.5" fill="none" opacity="0.5"
        stroke-linecap="round"/>
  <path d="M90 330 C 130 312, 170 305, 200 305 C 230 305, 270 312, 310 330"
        stroke="#B8714E" stroke-width="2" fill="none" opacity="0.35"
        stroke-linecap="round"/>
  <path d="M75 350 C 120 330, 165 322, 200 322 C 235 322, 280 330, 325 350"
        stroke="#B8714E" stroke-width="1.5" fill="none" opacity="0.2"
        stroke-linecap="round"/>

  <!-- Small dot accent at top -->
  <circle cx="200" cy="45" r="5" fill="#B8714E" opacity="0.6"/>
</svg>
